inDegrees=no
num_controls=7
num_derivatives=13
num_iterations=140
num_multipliers=7
num_parameters=0
num_slacks=7
num_states=26
objective=5.879822
objective_accelerations=0.786443
objective_balance=0.006433
objective_effort=0.527561
objective_height=4.535670
objective_ligament=0.023715
solver_duration=1170.845137
status=Solve_Succeeded
success=true
DataType=double
version=3
OpenSimVersion=4.4-2022-07-23-0e9fedc
endheader
time	/jointset/ground_pelvis/pelvis_tilt/value	/jointset/ground_pelvis/pelvis_tx/value	/jointset/ground_pelvis/pelvis_ty/value	/jointset/hip_r/hip_flexion_r/value	/jointset/hip_r/hip_adduction_r/value	/jointset/hip_r/hip_rotation_r/value	/jointset/back/lumbar_extension/value	/jointset/patellofemoral_r/patellar_flexion_r/value	/jointset/knee_r/knee_flexion_r/value	/jointset/knee_r/knee_adduction_r/value	/jointset/knee_r/knee_rotation_r/value	/jointset/ankle_r/ankle_angle_r/value	/jointset/subtalar_r/subtalar_angle_r/value	/jointset/ground_pelvis/pelvis_tilt/speed	/jointset/ground_pelvis/pelvis_tx/speed	/jointset/ground_pelvis/pelvis_ty/speed	/jointset/hip_r/hip_flexion_r/speed	/jointset/hip_r/hip_adduction_r/speed	/jointset/hip_r/hip_rotation_r/speed	/jointset/back/lumbar_extension/speed	/jointset/patellofemoral_r/patellar_flexion_r/speed	/jointset/knee_r/knee_flexion_r/speed	/jointset/knee_r/knee_adduction_r/speed	/jointset/knee_r/knee_rotation_r/speed	/jointset/ankle_r/ankle_angle_r/speed	/jointset/subtalar_r/subtalar_angle_r/speed	/forceset/tau_hip_flexion_r	/forceset/tau_hip_adduction_r	/forceset/tau_hip_rotation_r	/forceset/tau_knee_flexion_r	/forceset/tau_ankle_angle_r	/forceset/tau_subtalar_angle_r	/forceset/tau_lumbar_extension	lambda_cid13_p0	lambda_cid14_p0	lambda_cid14_p1	lambda_cid14_p2	lambda_cid14_p3	lambda_cid14_p4	lambda_cid14_p5	/jointset/ground_pelvis/pelvis_tilt/accel	/jointset/ground_pelvis/pelvis_tx/accel	/jointset/ground_pelvis/pelvis_ty/accel	/jointset/hip_r/hip_flexion_r/accel	/jointset/hip_r/hip_adduction_r/accel	/jointset/hip_r/hip_rotation_r/accel	/jointset/back/lumbar_extension/accel	/jointset/patellofemoral_r/patellar_flexion_r/accel	/jointset/knee_r/knee_flexion_r/accel	/jointset/knee_r/knee_adduction_r/accel	/jointset/knee_r/knee_rotation_r/accel	/jointset/ankle_r/ankle_angle_r/accel	/jointset/subtalar_r/subtalar_angle_r/accel	gamma_cid13_p0	gamma_cid14_p0	gamma_cid14_p1	gamma_cid14_p2	gamma_cid14_p3	gamma_cid14_p4	gamma_cid14_p5
1.5	-0.107890658976398	0.01107923678726967	0.7876352651810425	0.9315068855260458	-0.2251084641595874	-0.1124454016805608	-0.6419270246744362	1.040995633958365	1.040995633958388	-0.06351354935488113	0.174529479732655	0.3131630140635577	0.1425146371820906	0.5241929841814297	0.2437605222635975	0.633090270615557	-2.328295918634808	0.0390666609665931	-0.2565051934147771	0.7954645330527496	-2.228300723802843	-2.228300723802316	0.4292811690045678	0.0001325074913128669	-0.5310104106819673	-0.1525641606440704	-0.1754584341899545	-0.003455826300515475	0.02028725374533907	-0.3335337643908518	0.04379479742635813	0.001613583469687774	0.2247925249816146	-4.587127229678694	-27.60152798291908	-4.210500415813308	1.182813616282825	-8.154289602192748	-626.3946311310348	67.96225382577929	0.3751250703060738	0.7761213999103204	-0.6111852461998636	-1.237371371301879	-0.1592243717862301	-0.4917406595751176	2.080935972536392	-1.507863831461769	-1.507863831461762	0.5302186472856011	-0.04144494512126332	-0.8160527954254031	-0.4307186652143605	2.139399823064704e-07	1.338770352306479e-07	-1.560274384693864e-06	1.375836541561421e-06	9.249744631671371e-08	3.311309130263588e-07	-8.383233574929406e-07
1.51	-0.1026302982968662	0.01355540046138182	0.793934336734277	0.9081641951246577	-0.2247268808043578	-0.1150346822937267	-0.6338700810684589	1.018639935165195	1.01863993516526	-0.05919227455504652	0.1745302121861587	0.3078126340052685	0.1409660866916671	0.527789282656921	0.2514432713163829	0.6265855775730629	-2.339932532712681	0.03724848144210478	-0.2613333616928168	0.8158146729931492	-2.24253388507466	-2.242533885074108	0.4349359823840173	-2.940011333786628e-05	-0.5389686836112887	-0.1570905433097118	-0.1675116306423234	-0.004249195093859221	0.02010989507536612	-0.3282400056797719	0.0450049528676322	0.000841450973772639	0.2174015879602016	-5.4787137840987	-26.86444934923077	-4.299976460442596	1.063660770004059	-8.187593684326302	-620.2868687128764	67.17823325833565	0.3384197276110874	0.7600234302648516	-0.6908035406122596	-1.080338546187668	-0.1932140601356382	-0.4753515950800158	1.995625733045927	-1.335317674018901	-1.335317674015305	0.577205791537611	-0.009789448265299469	-0.7711114662647078	-0.4553432631220832	2.306853401182716e-07	1.603500267206553e-07	-1.575439983522616e-06	1.554548716850922e-06	7.421614399447559e-08	3.672179516394646e-07	-8.463264051649342e-07
1.52	-0.09733666713428679	0.01610752598048189	0.8001642229156195	0.8847144321584463	-0.2243634991078814	-0.1176716439261735	-0.6256129215174301	0.9961510496795484	0.9961510496795335	-0.05481563299973615	0.174528080410687	0.3023855918327558	0.1393739233354102	0.5308470807899716	0.2589528912611811	0.6192531962371612	-2.349710431596892	0.03542632922319953	-0.266041397297317	0.835507722063711	-2.254938062305565	-2.254938062304988	0.4403545200939408	-0.0004403389230708253	-0.5463428335237797	-0.1612867338106841	-0.1595648270947699	-0.005042563886651298	0.01993253640467566	-0.3229462469688151	0.04621510830905984	6.931847880044107e-05	0.2100106509386781	-6.450737812698683	-26.11947476057076	-4.377854528215074	0.930989482254086	-8.260998822068595	-614.0859875212299	66.47137382277101	0.2674250018188666	0.7414955783124794	-0.7767229048814052	-0.8656283325690264	-0.160018910669899	-0.4677141248682932	1.949517798569241	-1.142067023279229	-1.142067023279229	0.4829635133803206	-0.091251186135961	-0.6992281920598594	-0.3646802322815065	2.362804887973563e-07	1.628583331584913e-07	-1.672333174240374e-06	1.555860339890676e-06	7.81626966456152e-08	3.906026652269403e-07	-9.299036023444242e-07
1.53	-0.09201514240941706	0.01873375247953563	0.8063167297690681	0.861176225268107	-0.2240182740827992	-0.1203557062542565	-0.6171622911741463	0.9735472225219267	0.9735472225218132	-0.05038659115706846	0.1745208374660679	0.2968877152908111	0.1377415811681404	0.5333680826420032	0.2662498852784324	0.6111177257004239	-2.357611300949551	0.03361943601592183	-0.2707520420745999	0.8544903855475526	-2.265514690667243	-2.265514690667128	0.4454126711036274	-0.001047130573576938	-0.5531370747943692	-0.1651269618219696	-0.1518150942356498	-0.00593459388010047	0.01974547771377509	-0.3176054886770854	0.04679418699608941	-0.000744958873901255	0.2027217988628233	-7.502095231681987	-25.61155298472648	-4.502342403142936	0.7906723497422811	-8.045760385017751	-608.2613937633471	65.73634150477379	0.2309810179393269	0.7174469182069771	-0.8514452842168864	-0.7043538028979642	-0.1908605713065002	-0.4695400532929801	1.853446467207737	-0.9686042934510781	-0.9686042935204572	0.5107874814965164	-0.05102673305386905	-0.655138335449162	-0.3856407783749142	2.300285402729299e-07	1.399041617283952e-07	-1.856061931340201e-06	1.368683876165075e-06	1.057263452059684e-07	4.004911584746842e-07	-1.093778333375628e-06
